<?xml version="1.0" encoding="utf-8"?>
<!-- Generator: Adobe Illustrator 21.1.0, SVG Export Plug-In . SVG Version: 6.00 Build 0)  -->
<svg version="1.1" id="Layer_1" xmlns="http://www.w3.org/2000/svg" xmlns:xlink="http://www.w3.org/1999/xlink" x="0px" y="0px"
	 viewBox="0 0 371.6 371.6" style="enable-background:new 0 0 371.6 371.6;" xml:space="preserve">
<circle style="fill:#0099D6;" cx="185.8" cy="185.8" r="185.8"/>
<path style="fill:#FFFFFF;" d="M57.8,71.3h7.8V78c1.9-2.3,3.6-4,5.1-5.1c2.6-1.8,5.6-2.7,8.9-2.7c3.8,0,6.8,0.9,9.1,2.8
	c1.3,1.1,2.5,2.6,3.5,4.7c1.8-2.5,3.8-4.4,6.2-5.6c2.4-1.2,5-1.8,8-1.8c6.3,0,10.6,2.3,12.9,6.9c1.2,2.5,1.8,5.8,1.8,9.9v31.3h-8.2
	V85.6c0-3.1-0.8-5.3-2.4-6.5c-1.6-1.2-3.5-1.8-5.7-1.8c-3.1,0-5.8,1-8,3.1c-2.2,2.1-3.4,5.6-3.4,10.4v27.4h-8V87.6
	c0-3.2-0.4-5.5-1.1-7c-1.2-2.2-3.4-3.3-6.7-3.3c-3,0-5.7,1.2-8.2,3.5c-2.4,2.3-3.7,6.5-3.7,12.6v25h-7.9V71.3z"/>
<path style="fill:#FFFFFF;" d="M158.8,71.3h8.7c-1.1,3-3.6,9.9-7.4,20.7c-2.9,8.1-5.3,14.7-7.2,19.8c-4.6,12-7.8,19.3-9.7,22
	c-1.9,2.6-5.1,4-9.7,4c-1.1,0-2,0-2.6-0.1c-0.6-0.1-1.3-0.2-2.2-0.5V130c1.4,0.4,2.4,0.6,3,0.7c0.6,0.1,1.2,0.1,1.6,0.1
	c1.5,0,2.5-0.2,3.2-0.7s1.3-1.1,1.7-1.8c0.1-0.2,0.7-1.4,1.6-3.6c0.9-2.2,1.6-3.8,2-4.8l-17.4-48.4h9l12.6,38.3L158.8,71.3z"/>
<path style="fill:#FFFFFF;" d="M57.1,161.5h7.7v6.2c1.6-2.1,3.3-3.8,5.2-5c2.7-1.8,5.8-2.6,9.4-2.6c5.3,0,9.9,2,13.6,6.1
	c3.7,4.1,5.6,9.9,5.6,17.5c0,10.3-2.7,17.6-8.1,22c-3.4,2.8-7.4,4.2-11.9,4.2c-3.6,0-6.5-0.8-9-2.3c-1.4-0.9-3-2.4-4.7-4.5v24H57
	v-65.6H57.1z M86.9,198.4c2.5-3.1,3.7-7.7,3.7-13.9c0-3.8-0.5-7-1.6-9.7c-2.1-5.2-5.8-7.8-11.3-7.8s-9.3,2.7-11.3,8.2
	c-1.1,2.9-1.6,6.7-1.6,11.2c0,3.6,0.5,6.7,1.6,9.3c2.1,4.9,5.8,7.3,11.3,7.3C81.4,203,84.4,201.5,86.9,198.4z"/>
<path style="fill:#FFFFFF;" d="M138.5,166c4.2,4,6.2,10,6.2,17.8c0,7.6-1.8,13.8-5.5,18.8c-3.7,4.9-9.4,7.4-17.1,7.4
	c-6.4,0-11.5-2.2-15.3-6.6c-3.8-4.4-5.7-10.3-5.7-17.6c0-7.9,2-14.2,6-18.9c4-4.7,9.3-7,16.1-7C129.3,159.9,134.4,161.9,138.5,166z
	 M133.6,197.3c1.9-4,2.9-8.4,2.9-13.2c0-4.4-0.7-8-2.1-10.7c-2.2-4.3-6-6.5-11.4-6.5c-4.8,0-8.3,1.8-10.4,5.5
	c-2.2,3.7-3.3,8.1-3.3,13.3c0,5,1.1,9.2,3.3,12.5c2.2,3.3,5.6,5,10.3,5C128.1,203.2,131.7,201.2,133.6,197.3z"/>
<path style="fill:#FFFFFF;" d="M155.8,193.6c0.2,2.6,0.9,4.7,2,6.1c2,2.5,5.6,3.8,10.6,3.8c3,0,5.6-0.6,7.9-1.9
	c2.3-1.3,3.4-3.2,3.4-5.9c0-2-0.9-3.6-2.7-4.6c-1.2-0.6-3.5-1.4-6.9-2.2l-6.4-1.6c-4.1-1-7.1-2.1-9-3.3c-3.5-2.1-5.2-5.1-5.2-8.9
	c0-4.5,1.6-8.1,4.9-10.8c3.3-2.8,7.6-4.1,13.1-4.1c7.2,0,12.4,2.1,15.5,6.2c2,2.6,3,5.5,2.9,8.5h-7.5c-0.2-1.8-0.8-3.4-1.9-4.9
	c-1.9-2.1-5.1-3.1-9.7-3.1c-3.1,0-5.4,0.6-7,1.7c-1.6,1.1-2.4,2.6-2.4,4.5c0,2,1,3.7,3.1,4.9c1.2,0.7,3,1.4,5.3,1.9l5.3,1.3
	c5.8,1.4,9.7,2.7,11.6,4c3.1,2,4.6,5.2,4.6,9.5c0,4.2-1.6,7.8-4.8,10.9c-3.2,3.1-8.1,4.6-14.7,4.6c-7.1,0-12.1-1.6-15.1-4.8
	c-3-3.2-4.5-7.1-4.7-11.8H155.8z"/>
<path style="fill:#FFFFFF;" d="M197.4,193.6c0.2,2.6,0.9,4.7,2,6.1c2,2.5,5.6,3.8,10.6,3.8c3,0,5.6-0.6,7.9-1.9
	c2.3-1.3,3.4-3.2,3.4-5.9c0-2-0.9-3.6-2.7-4.6c-1.2-0.6-3.5-1.4-6.9-2.2l-6.4-1.6c-4.1-1-7.1-2.1-9-3.3c-3.5-2.1-5.2-5.1-5.2-8.9
	c0-4.5,1.6-8.1,4.9-10.8c3.3-2.8,7.6-4.1,13.1-4.1c7.2,0,12.4,2.1,15.5,6.2c2,2.6,3,5.5,2.9,8.5H220c-0.2-1.8-0.8-3.4-1.9-4.9
	c-1.9-2.1-5.1-3.1-9.7-3.1c-3.1,0-5.4,0.6-7,1.7c-1.6,1.1-2.4,2.6-2.4,4.5c0,2,1,3.7,3.1,4.9c1.2,0.7,3,1.4,5.3,1.9l5.3,1.3
	c5.8,1.4,9.7,2.7,11.6,4c3.1,2,4.6,5.2,4.6,9.5c0,4.2-1.6,7.8-4.8,10.9c-3.2,3-8.1,4.6-14.7,4.6c-7.1,0-12.1-1.6-15.1-4.8
	c-3-3.2-4.5-7.1-4.7-11.8H197.4z"/>
<path style="fill:#FFFFFF;" d="M234.2,143.8h8v9h-8V143.8z M234.2,161.5h8v46.8h-8V161.5z"/>
<path style="fill:#FFFFFF;" d="M250.1,143.6h7.7V167c1.7-2.3,3.8-4,6.2-5.2c2.4-1.2,5-1.8,7.9-1.8c5.9,0,10.7,2,14.3,6
	c3.7,4,5.5,10,5.5,17.8c0,7.4-1.8,13.6-5.4,18.5c-3.6,4.9-8.6,7.4-15,7.4c-3.6,0-6.6-0.9-9.1-2.6c-1.5-1-3-2.7-4.7-4.9v6h-7.3
	L250.1,143.6z M280.4,197.7c2.1-3.4,3.2-7.9,3.2-13.4c0-5-1.1-9.1-3.2-12.3c-2.1-3.3-5.3-4.9-9.4-4.9c-3.6,0-6.8,1.3-9.5,4
	c-2.7,2.7-4.1,7.1-4.1,13.2c0,4.4,0.6,8,1.7,10.8c2.1,5.2,6,7.8,11.7,7.8C275,202.8,278.3,201.1,280.4,197.7z"/>
<rect x="297.7" y="143.8" style="fill:#FFFFFF;" width="7.9" height="64.6"/>
<path style="fill:#FFFFFF;" d="M343.1,162.6c3.1,1.6,5.5,3.6,7.1,6.1c1.6,2.4,2.6,5.1,3.1,8.3c0.5,2.2,0.7,5.6,0.7,10.4h-34.2
	c0.1,4.8,1.3,8.6,3.4,11.5c2.1,2.9,5.3,4.3,9.7,4.3c4.1,0,7.4-1.4,9.8-4.1c1.4-1.6,2.3-3.4,2.9-5.5h7.8c-0.2,1.7-0.9,3.7-2,5.8
	c-1.2,2.1-2.4,3.9-3.9,5.2c-2.4,2.3-5.3,3.9-8.9,4.7c-1.9,0.5-4,0.7-6.4,0.7c-5.8,0-10.8-2.1-14.8-6.4c-4-4.3-6.1-10.2-6.1-17.9
	c0-7.6,2-13.7,6.1-18.4c4.1-4.7,9.4-7.1,16-7.1C336.8,160.2,340,161,343.1,162.6z M345.9,181c-0.3-3.4-1.1-6.2-2.2-8.2
	c-2.1-3.8-5.7-5.7-10.8-5.7c-3.6,0-6.6,1.3-9.1,3.9c-2.4,2.6-3.7,6-3.9,10H345.9z"/>
<path style="fill:#FFFFFF;" d="M62.5,283.6c0.2,2.6,0.9,4.7,2,6.1c2,2.5,5.6,3.8,10.6,3.8c3,0,5.6-0.6,7.9-1.9
	c2.3-1.3,3.4-3.2,3.4-5.9c0-2-0.9-3.6-2.7-4.6c-1.2-0.6-3.5-1.4-6.9-2.2l-6.4-1.6c-4.1-1-7.1-2.1-9-3.3c-3.5-2.1-5.2-5.1-5.2-8.9
	c0-4.5,1.6-8.1,4.9-10.8c3.3-2.8,7.6-4.1,13.1-4.1c7.2,0,12.4,2.1,15.5,6.2c2,2.6,3,5.5,2.9,8.5h-7.5c-0.2-1.8-0.8-3.4-1.9-4.9
	c-1.9-2.1-5.1-3.1-9.7-3.1c-3.1,0-5.4,0.6-7,1.7c-1.6,1.1-2.4,2.6-2.4,4.5c0,2,1,3.7,3.1,4.9c1.2,0.7,3,1.4,5.3,1.9l5.3,1.3
	c5.8,1.4,9.7,2.7,11.6,4c3.1,2,4.6,5.2,4.6,9.5c0,4.2-1.6,7.8-4.8,10.9c-3.2,3.1-8.1,4.6-14.7,4.6c-7.1,0-12.1-1.6-15.1-4.8
	c-3-3.2-4.5-7.1-4.7-11.8H62.5z"/>
<path style="fill:#FFFFFF;" d="M128.5,252.6c3.1,1.6,5.5,3.6,7.1,6.1c1.6,2.4,2.6,5.1,3.1,8.3c0.5,2.2,0.7,5.6,0.7,10.4h-34.2
	c0.1,4.8,1.3,8.6,3.4,11.5c2.1,2.9,5.3,4.3,9.7,4.3c4.1,0,7.4-1.4,9.8-4.1c1.4-1.6,2.3-3.4,2.9-5.5h7.8c-0.2,1.7-0.9,3.7-2,5.8
	c-1.2,2.1-2.4,3.9-3.9,5.2c-2.4,2.3-5.3,3.9-8.9,4.7c-1.9,0.5-4,0.7-6.4,0.7c-5.8,0-10.8-2.1-14.8-6.4c-4-4.3-6.1-10.2-6.1-17.9
	c0-7.6,2-13.7,6.1-18.4c4.1-4.7,9.4-7.1,16-7.1C122.1,250.2,125.3,251,128.5,252.6z M131.3,271c-0.3-3.4-1.1-6.2-2.2-8.2
	c-2.1-3.8-5.7-5.7-10.8-5.7c-3.6,0-6.6,1.3-9.1,3.9c-2.4,2.6-3.7,6-3.9,10H131.3z"/>
<rect x="146.2" y="233.8" style="fill:#FFFFFF;" width="7.9" height="64.6"/>
<path style="fill:#FFFFFF;" d="M166.3,236.9c1.8-2.7,5.4-4,10.7-4c0.5,0,1,0,1.5,0s1.1,0.1,1.8,0.1v7.2c-0.8-0.1-1.4-0.1-1.8-0.1
	s-0.7,0-1,0c-2.4,0-3.9,0.6-4.4,1.9c-0.5,1.2-0.7,4.4-0.7,9.5h7.9v6.2h-7.9v40.6h-7.8v-40.6H158v-6.2h6.5v-7.4
	C164.7,240.8,165.3,238.4,166.3,236.9z"/>
<path style="fill:#FFFFFF;" d="M243.1,246.3c2.5-0.6,3.9,2.9,1.1,3.5c-5.5,1.2-12.3,2.3-15.5,7.4c-3.9,6.2-6.7,12.9-9.6,19.6
	c-4.3,10-12.7,18.4-21.9,24.1c-2.1,1.3-4.6-1.7-2.2-3.2c4.8-3,9.1-7,12.9-11.2c5.2-5.7,7.5-12,10.6-19c2.4-5.3,5.2-13,10.1-16.4
	C232.7,248.4,238.5,247.4,243.1,246.3z"/>
<path style="fill:#FFFFFF;" d="M195.7,249.9c-2.7-0.6-1.4-4.1,1.1-3.5c4.7,1.1,10.7,2.1,14.6,5c4.7,3.4,7.6,11,9.9,16.2
	c3.3,7.5,5.8,14,11.5,20c3.6,3.8,7.6,7.5,12,10.2c2.4,1.5-0.1,4.5-2.2,3.2c-9.2-5.7-17.6-14.1-21.9-24.1c-3-6.8-5.7-14-9.9-20.2
	C207.6,252.1,200.9,251.1,195.7,249.9z"/>
<path style="fill:#FFFFFF;" d="M227.3,244.9c-0.2,4.2-2.8,8.6-7.6,8.4c-4.3-0.2-7-4.4-7-8.4c0-4.1,2.8-8.5,7.3-8.5
	C224.6,236.4,227.1,240.8,227.3,244.9c0.1,2.4-4.2,2.4-4.3,0c-0.1-1.6-0.8-4.8-3-4.8c-2.1,0-3,3.2-3,4.8c0,1.6,0.8,4.8,3,4.8
	s2.9-3.2,3-4.8C223.1,242.5,227.4,242.5,227.3,244.9z"/>
</svg>
